Coordinates
version=1
nRows=21
nColumns=12
inDegrees=yes

Units are S.I. units (second, meters, Newtons, ...)
Angles are in degrees

endheader
time	SC_y	SC_z	SC_x	AC_y	AC_z	AC_x	GH_y	GH_z	GH_yy	EL_x	PS_y
       0.0              -43.02          32.21           61.9          62.66         -3.446          17.79          27.53          28.34         -134.8          126.5          20.65
   0.03343              -43.02          32.21          61.89          62.65         -3.448          17.79          27.55          28.33         -134.7          126.5          20.66
   0.06686              -43.02          32.21          61.89          62.65         -3.449          17.78          27.58          28.33         -134.7          126.5          20.67
    0.1003              -43.01          32.21          61.88          62.65          -3.45          17.78           27.6          28.33         -134.6          126.4          20.69
    0.1337              -43.01           32.2          61.88          62.65         -3.452          17.78          27.62          28.33         -134.6          126.4           20.7
    0.1671              -43.01           32.2          61.88          62.64         -3.454          17.78          27.65          28.32         -134.5          126.4          20.71
    0.2006               -43.0           32.2          61.87          62.64         -3.455          17.78          27.68          28.32         -134.5          126.4          20.72
     0.234               -43.0           32.2          61.87          62.64         -3.457          17.78          27.71          28.32         -134.4          126.4          20.74
    0.2674              -42.99          32.19          61.86          62.63         -3.459          17.77          27.74          28.31         -134.3          126.4          20.75
    0.3008              -42.99          32.19          61.86          62.63         -3.461          17.77          27.78          28.31         -134.3          126.4          20.77
    0.3343              -42.99          32.19          61.85          62.63         -3.464          17.77          27.81          28.31         -134.2          126.4          20.79
    0.3677              -42.98          32.18          61.84          62.62         -3.466          17.77          27.86           28.3         -134.1          126.4          20.81
    0.4011              -42.97          32.18          61.84          62.62         -3.469          17.76           27.9           28.3         -134.0          126.4          20.83
    0.4346              -42.97          32.17          61.83          62.61         -3.472          17.76          27.95          28.29         -133.9          126.4          20.85
     0.468              -42.96          32.17          61.82          62.61         -3.475          17.76           28.0          28.29         -133.8          126.4          20.88
    0.5014              -42.95          32.16          61.81           62.6         -3.478          17.75          28.05          28.28         -133.7          126.4           20.9
    0.5348              -42.95          32.16           61.8           62.6         -3.482          17.75          28.11          28.27         -133.6          126.4          20.93
    0.5683              -42.94          32.15          61.79          62.59         -3.486          17.74          28.18          28.27         -133.4          126.3          20.96
    0.6017              -42.93          32.15          61.78          62.58         -3.491          17.74          28.25          28.26         -133.3          126.3           21.0
    0.6351              -42.92          32.14          61.77          62.57         -3.495          17.73          28.33          28.25         -133.1          126.3          21.03
    0.6686              -42.91          32.13          61.76          62.57         -3.501          17.73          28.41          28.24         -133.0          126.3          21.07
